<svg width="30" height="31" viewBox="0 0 30 31" fill="none" xmlns="http://www.w3.org/2000/svg">
<g filter="url(#filter0_d_114_656)">
<path d="M15 15C16.6569 15 18 13.6569 18 12C18 10.3431 16.6569 9 15 9C13.3431 9 12 10.3431 12 12C12 13.6569 13.3431 15 15 15Z" stroke="white" stroke-width="2" stroke-linecap="round" stroke-linejoin="round"/>
<path d="M21.7273 14.7273C21.6063 15.0015 21.5702 15.3056 21.6236 15.6005C21.6771 15.8954 21.8177 16.1676 22.0273 16.3818L22.0818 16.4364C22.2509 16.6052 22.385 16.8057 22.4765 17.0265C22.568 17.2472 22.6151 17.4838 22.6151 17.7227C22.6151 17.9617 22.568 18.1983 22.4765 18.419C22.385 18.6397 22.2509 18.8402 22.0818 19.0091C21.913 19.1781 21.7124 19.3122 21.4917 19.4037C21.271 19.4952 21.0344 19.5423 20.7955 19.5423C20.5565 19.5423 20.3199 19.4952 20.0992 19.4037C19.8785 19.3122 19.678 19.1781 19.5091 19.0091L19.4545 18.9545C19.2403 18.745 18.9682 18.6044 18.6733 18.5509C18.3784 18.4974 18.0742 18.5335 17.8 18.6545C17.5311 18.7698 17.3018 18.9611 17.1403 19.205C16.9788 19.4489 16.8921 19.7347 16.8909 20.0273V20.1818C16.8909 20.664 16.6994 21.1265 16.3584 21.4675C16.0174 21.8084 15.5549 22 15.0727 22C14.5905 22 14.1281 21.8084 13.7871 21.4675C13.4461 21.1265 13.2545 20.664 13.2545 20.1818V20.1C13.2475 19.7991 13.1501 19.5073 12.975 19.2625C12.7999 19.0176 12.5552 18.8312 12.2727 18.7273C11.9985 18.6063 11.6944 18.5702 11.3995 18.6236C11.1046 18.6771 10.8324 18.8177 10.6182 19.0273L10.5636 19.0818C10.3948 19.2509 10.1943 19.385 9.97353 19.4765C9.7528 19.568 9.51621 19.6151 9.27727 19.6151C9.03834 19.6151 8.80174 19.568 8.58102 19.4765C8.36029 19.385 8.15977 19.2509 7.99091 19.0818C7.82186 18.913 7.68775 18.7124 7.59626 18.4917C7.50476 18.271 7.45766 18.0344 7.45766 17.7955C7.45766 17.5565 7.50476 17.3199 7.59626 17.0992C7.68775 16.8785 7.82186 16.678 7.99091 16.5091L8.04545 16.4545C8.25503 16.2403 8.39562 15.9682 8.4491 15.6733C8.50257 15.3784 8.46647 15.0742 8.34545 14.8C8.23022 14.5311 8.03887 14.3018 7.79497 14.1403C7.55107 13.9788 7.26526 13.8921 6.97273 13.8909H6.81818C6.33597 13.8909 5.87351 13.6994 5.53253 13.3584C5.19156 13.0174 5 12.5549 5 12.0727C5 11.5905 5.19156 11.1281 5.53253 10.7871C5.87351 10.4461 6.33597 10.2545 6.81818 10.2545H6.9C7.2009 10.2475 7.49273 10.1501 7.73754 9.97501C7.98236 9.79991 8.16883 9.55521 8.27273 9.27273C8.39374 8.99853 8.42984 8.69437 8.37637 8.39947C8.3229 8.10456 8.18231 7.83244 7.97273 7.61818L7.91818 7.56364C7.74913 7.39478 7.61503 7.19425 7.52353 6.97353C7.43203 6.7528 7.38493 6.51621 7.38493 6.27727C7.38493 6.03834 7.43203 5.80174 7.52353 5.58102C7.61503 5.36029 7.74913 5.15977 7.91818 4.99091C8.08704 4.82186 8.28757 4.68775 8.50829 4.59626C8.72901 4.50476 8.96561 4.45766 9.20455 4.45766C9.44348 4.45766 9.68008 4.50476 9.9008 4.59626C10.1215 4.68775 10.322 4.82186 10.4909 4.99091L10.5455 5.04545C10.7597 5.25503 11.0318 5.39562 11.3267 5.4491C11.6216 5.50257 11.9258 5.46647 12.2 5.34545H12.2727C12.5416 5.23022 12.7709 5.03887 12.9324 4.79497C13.094 4.55107 13.1807 4.26526 13.1818 3.97273V3.81818C13.1818 3.33597 13.3734 2.87351 13.7144 2.53253C14.0553 2.19156 14.5178 2 15 2C15.4822 2 15.9447 2.19156 16.2856 2.53253C16.6266 2.87351 16.8182 3.33597 16.8182 3.81818V3.9C16.8193 4.19253 16.906 4.47834 17.0676 4.72224C17.2291 4.96614 17.4584 5.15749 17.7273 5.27273C18.0015 5.39374 18.3056 5.42984 18.6005 5.37637C18.8954 5.3229 19.1676 5.18231 19.3818 4.97273L19.4364 4.91818C19.6052 4.74913 19.8057 4.61503 20.0265 4.52353C20.2472 4.43203 20.4838 4.38493 20.7227 4.38493C20.9617 4.38493 21.1983 4.43203 21.419 4.52353C21.6397 4.61503 21.8402 4.74913 22.0091 4.91818C22.1781 5.08704 22.3122 5.28757 22.4037 5.50829C22.4952 5.72901 22.5423 5.96561 22.5423 6.20455C22.5423 6.44348 22.4952 6.68008 22.4037 6.9008C22.3122 7.12152 22.1781 7.32205 22.0091 7.49091L21.9545 7.54545C21.745 7.75971 21.6044 8.03183 21.5509 8.32674C21.4974 8.62164 21.5335 8.9258 21.6545 9.2V9.27273C21.7698 9.54161 21.9611 9.77093 22.205 9.93245C22.4489 10.094 22.7347 10.1807 23.0273 10.1818H23.1818C23.664 10.1818 24.1265 10.3734 24.4675 10.7144C24.8084 11.0553 25 11.5178 25 12C25 12.4822 24.8084 12.9447 24.4675 13.2856C24.1265 13.6266 23.664 13.8182 23.1818 13.8182H23.1C22.8075 13.8193 22.5217 13.906 22.2778 14.0676C22.0339 14.2291 21.8425 14.4584 21.7273 14.7273Z" stroke="white" stroke-width="2" stroke-linecap="round" stroke-linejoin="round"/>
</g>
<defs>
<filter id="filter0_d_114_656" x="-1" y="0" width="32" height="32" filterUnits="userSpaceOnUse" color-interpolation-filters="sRGB">
<feFlood flood-opacity="0" result="BackgroundImageFix"/>
<feColorMatrix in="SourceAlpha" type="matrix" values="0 0 0 0 0 0 0 0 0 0 0 0 0 0 0 0 0 0 127 0" result="hardAlpha"/>
<feOffset dy="4"/>
<feGaussianBlur stdDeviation="2"/>
<feComposite in2="hardAlpha" operator="out"/>
<feColorMatrix type="matrix" values="0 0 0 0 0 0 0 0 0 0 0 0 0 0 0 0 0 0 0.25 0"/>
<feBlend mode="normal" in2="BackgroundImageFix" result="effect1_dropShadow_114_656"/>
<feBlend mode="normal" in="SourceGraphic" in2="effect1_dropShadow_114_656" result="shape"/>
</filter>
</defs>
</svg>
